# xmcd
#
# Track frame offsets: 
#        150
#        14945
#        28790
#        45367
#        61360
#        76257
#        88447
#        104627
#        120792
#        133385
#
# Disc length: 2023 seconds
#
# Revision: 0
# Processed by: cddbd v1.5.2PL0 Copyright (c) Steve Scherf et al.
# Submitted via: ExactAudioCopy v0.99pb3
#
DISCID=8907e50a
DTITLE=Battlerack Scatter - The Blues Ain't For Everybody 
DYEAR=1991
DGENRE=Blues
TTITLE0=Can't Fight The Feeling
TTITLE1=I Want You (Right Here)
TTITLE2=I Just Love My Baby
TTITLE3=Just Be Yourself
TTITLE4=Strange Woman
TTITLE5=Blues Ain't For Everybody
TTITLE6=Take Your Word
TTITLE7=Love To Love You
TTITLE8=Just Friends
TTITLE9=Million Dollar Woman
EXTD=
EXTT0=
EXTT1=
EXTT2=
EXTT3=
EXTT4=
EXTT5=
EXTT6=
EXTT7=
EXTT8=
EXTT9=
PLAYORDER=
